HIERARCHY
ROOT Hips
{
	OFFSET 0.000000 0.000000 0.000000
	CHANNELS 6 Xposition Yposition Zposition Zrotation Yrotation Xrotation 
	JOINT LeftUpLeg_virtual
	{
		OFFSET 0.000000 0.000000 0.000000
		CHANNELS 3 Zrotation Yrotation Xrotation
		JOINT LeftUpLeg
		{
			OFFSET 8.479694 -4.795517 -0.379053
			CHANNELS 3 Zrotation Yrotation Xrotation
			JOINT LeftLeg
			{
				OFFSET 0.485052 -32.551468 0.112863
				CHANNELS 3 Zrotation Yrotation Xrotation
				JOINT LeftFoot
				{
					OFFSET 0.438033 -32.635670 -3.012641
					CHANNELS 3 Zrotation Yrotation Xrotation
					JOINT LeftToeBase
					{
						OFFSET 0.970169 -13.225353 11.864223
						CHANNELS 3 Zrotation Yrotation Xrotation
						End Site
						{
							OFFSET 0.000000 0.000000 0.000000
						}
					}
				}
			}
		}
	}
	JOINT RightUpLeg_virtual
	{
		OFFSET 0.000000 0.000000 0.000000
		CHANNELS 3 Zrotation Yrotation Xrotation
		JOINT RightUpLeg
		{
			OFFSET -8.479694 -4.795517 -0.379053
			CHANNELS 3 Zrotation Yrotation Xrotation
			JOINT RightLeg
			{
				OFFSET -0.484100 -32.551483 0.112903
				CHANNELS 3 Zrotation Yrotation Xrotation
				JOINT RightFoot
				{
					OFFSET -0.438985 -32.635651 -3.012681
					CHANNELS 3 Zrotation Yrotation Xrotation
					JOINT RightToeBase
					{
						OFFSET -0.970169 -13.225354 11.864223
						CHANNELS 3 Zrotation Yrotation Xrotation
						End Site
						{
							OFFSET 0.000000 0.000000 0.000000
						}
					}
				}
			}
		}
	}
	JOINT Spine_virtual
	{
		OFFSET 0.000000 0.000000 0.000000
		CHANNELS 3 Zrotation Yrotation Xrotation
		JOINT Spine
		{
			OFFSET 0.000000 7.722015 1.166203
			CHANNELS 3 Zrotation Yrotation Xrotation
			JOINT Spine1
			{
				OFFSET 0.000000 12.024086 0.248766
				CHANNELS 3 Zrotation Yrotation Xrotation
				JOINT Spine2
				{
					OFFSET -0.000000 11.503036 -0.491240
					CHANNELS 3 Zrotation Yrotation Xrotation
					JOINT Neck_virtual
					{
						OFFSET 0.000000 0.000000 0.000000
						CHANNELS 3 Zrotation Yrotation Xrotation
						JOINT Neck
						{
							OFFSET 0.000000 18.430687 -3.123054
							CHANNELS 3 Zrotation Yrotation Xrotation
							JOINT Head
							{
								OFFSET -0.000000 9.051071 1.034021
								CHANNELS 3 Zrotation Yrotation Xrotation
								End Site
								{
									OFFSET 0.000000 0.000000 0.000000
								}
							}
						}
					}
					JOINT LeftShoulder_virtual
					{
						OFFSET 0.000000 0.000000 0.000000
						CHANNELS 3 Zrotation Yrotation Xrotation
						JOINT LeftShoulder
						{
							OFFSET 6.197824 13.665230 -4.064723
							CHANNELS 3 Zrotation Yrotation Xrotation
							JOINT LeftArm
							{
								OFFSET 7.778132 -0.187073 -1.709282
								CHANNELS 3 Zrotation Yrotation Xrotation
								JOINT LeftForeArm
								{
									OFFSET 21.954697 0.000000 -2.041093
									CHANNELS 3 Zrotation Yrotation Xrotation
									JOINT LeftHand
									{
										OFFSET 22.992908 0.000000 -0.870901
										CHANNELS 3 Zrotation Yrotation Xrotation
										End Site
										{
											OFFSET 0.000000 0.000000 0.000000
										}
									}
								}
							}
						}
					}
					JOINT RightShoulder_virtual
					{
						OFFSET 0.000000 0.000000 0.000000
						CHANNELS 3 Zrotation Yrotation Xrotation
						JOINT RightShoulder
						{
							OFFSET -6.197824 13.665230 -4.064723
							CHANNELS 3 Zrotation Yrotation Xrotation
							JOINT RightArm
							{
								OFFSET -7.778132 -0.187073 -1.709282
								CHANNELS 3 Zrotation Yrotation Xrotation
								JOINT RightForeArm
								{
									OFFSET -21.954697 0.000000 -2.041093
									CHANNELS 3 Zrotation Yrotation Xrotation
									JOINT RightHand
									{
										OFFSET -22.992908 0.000000 -0.870901
										CHANNELS 3 Zrotation Yrotation Xrotation
										End Site
										{
											OFFSET 0.000000 0.000000 0.000000
										}
									}
								}
							}
						}
					}
				}
			}
		}
	}
}
MOTION
Frames: 5
Frame Time: 0.033333
-1.142042 80.828506 19.116594 -179.946811 4.176053 -179.952890 -5.310530 0.416387 10.990045 -3.099609 5.180564 -22.003045 10.444706 4.526555 32.146343 0.966353 -10.591665 -13.743413 0.000000 0.000000 0.000000 -2.067126 0.212570 11.079155 -1.548804 4.282885 -21.300951 -1.890044 3.209042 28.464281 9.386644 2.608722 -12.279323 0.000000 0.000000 0.000000 2.150839 2.497555 -1.217801 -4.655215 1.267994 -0.578862 0.298984 -3.098544 3.735457 -0.024455 0.013017 0.033612 0.235439 -2.191489 4.774011 -0.586775 1.647095 -5.305223 0.000000 0.000000 0.000000 1.633158 -1.403451 1.720728 -3.101659 4.915544 -6.294798 2.774680 -11.795390 -51.327144 0.871386 -32.632240 -2.464946 0.000000 0.000000 0.000000 -2.142816 -0.216139 1.197842 18.323509 -7.688828 -9.754800 -0.167664 3.157241 -60.902816 1.053591 21.405562 4.177283 0.000000 0.000000 0.000000 
-1.123456 80.821510 19.061369 -179.921103 4.177981 -179.972247 -5.391501 0.284988 11.073991 -3.037763 5.138337 -21.909172 10.332132 4.374478 32.137321 0.751662 -10.849764 -13.759369 0.000000 0.000000 0.000000 -2.014493 0.188452 11.097111 -1.499000 4.059693 -21.261938 -1.946611 3.054664 28.477929 9.201685 2.389862 -12.303889 0.000000 0.000000 0.000000 2.106807 2.460521 -1.230765 -4.635968 1.246185 -0.576460 0.345558 -3.116816 3.732632 0.044958 -0.005558 0.027227 0.148459 -2.295247 4.787718 -0.608790 1.652038 -5.290773 0.000000 0.000000 0.000000 1.567553 -1.403036 1.717860 -3.163640 4.935659 -6.276663 2.790898 -11.743197 -51.253115 0.895429 -32.675164 -2.490259 0.000000 0.000000 0.000000 -2.229354 -0.240554 1.243488 18.314235 -7.690558 -9.757548 -0.177762 3.192244 -60.951051 1.028421 21.377129 4.178810 0.000000 0.000000 0.000000 
-1.099355 80.818520 18.983555 -179.934804 4.212722 -179.912702 -5.424288 0.279905 11.076244 -2.994192 5.137658 -21.938054 10.345555 4.338693 32.177370 0.778708 -10.817304 -13.800863 0.000000 0.000000 0.000000 -2.012737 0.200568 11.075405 -1.491989 4.037624 -21.280598 -1.934021 3.010223 28.504568 9.221054 2.431893 -12.343297 0.000000 0.000000 0.000000 2.090296 2.434844 -1.304578 -4.679381 1.246871 -0.626201 0.328320 -3.115957 3.727770 -0.002152 -0.002110 0.020021 0.207894 -2.197949 4.848920 -0.582900 1.634650 -5.258892 0.000000 0.000000 0.000000 1.641701 -1.371071 1.723067 -3.125692 5.015654 -6.291102 2.574620 -11.650957 -51.173601 0.836094 -32.811214 -2.450406 0.000000 0.000000 0.000000 -2.151469 -0.198423 1.333815 18.325657 -7.711227 -9.796774 -0.163916 3.189261 -61.008015 0.983073 21.353118 4.181145 0.000000 0.000000 0.000000 
-1.074602 80.811035 18.904018 -179.962671 4.096314 -179.910407 -5.428779 0.257905 11.111721 -2.951263 5.034304 -21.928898 10.358501 4.284826 32.228470 0.799732 -10.801392 -13.850074 0.000000 0.000000 0.000000 -2.025685 0.117968 11.108248 -1.478239 3.913938 -21.235301 -1.923310 3.003060 28.564988 9.214291 2.459461 -12.389550 0.000000 0.000000 0.000000 2.060581 2.427688 -1.353124 -4.723414 1.288306 -0.636683 0.312054 -3.066366 3.770513 -0.021686 0.037649 0.008383 0.225122 -2.173208 4.912191 -0.512823 1.608008 -5.194165 0.000000 0.000000 0.000000 1.635704 -1.385213 1.836554 -3.138526 5.039285 -6.286775 2.516122 -11.741510 -51.167143 0.839106 -32.931023 -2.546388 0.000000 0.000000 0.000000 -2.146798 -0.239064 1.329511 18.296120 -7.842375 -9.659727 -0.061500 3.122828 -61.041899 0.813495 21.392231 4.061026 0.000000 0.000000 0.000000 
-1.051388 80.807243 18.834234 -179.935951 3.898058 -179.957357 -5.346321 0.229311 11.174104 -3.025827 4.946297 -21.876756 10.354050 4.209983 32.219003 0.806256 -10.811337 -13.815852 0.000000 0.000000 0.000000 -2.013016 0.034646 11.144555 -1.465267 3.804270 -21.125825 -1.914033 2.995174 28.593994 9.162567 2.452497 -12.467470 0.000000 0.000000 0.000000 2.064907 2.369042 -1.332228 -4.752812 1.286518 -0.669024 0.323634 -3.064936 3.800999 -0.014587 0.048445 0.044588 0.220554 -2.224374 4.897258 -0.441301 1.574531 -5.030058 0.000000 0.000000 0.000000 1.606299 -1.419242 1.808620 -3.085561 5.164905 -6.353102 2.380034 -11.772615 -51.091529 0.841917 -33.078695 -2.552121 0.000000 0.000000 0.000000 -2.174919 -0.260316 1.284324 18.365298 -7.893961 -9.703686 -0.075624 3.055883 -61.182014 0.803845 21.349623 4.177285 0.000000 0.000000 0.000000 
